<?xml version="1.0" encoding="UTF-8" ?>
<!DOCTYPE svg PUBLIC "-//W3C//DTD SVG 1.1//EN" "http://www.w3.org/Graphics/SVG/1.1/DTD/svg11.dtd">
<svg width="95" height="95" viewBox="3 2 95 95" version="1.1" xmlns="http://www.w3.org/2000/svg">
<g id="#07142453">
<path fill="#071424" opacity="0.33" d=" M 46.65 3.76 C 52.28 1.90 57.82 4.10 62.95 6.28 C 85.22 12.07 101.39 36.23 96.55 58.97 C 92.85 82.77 67.80 101.34 43.97 96.67 C 20.98 93.65 2.62 70.77 4.78 47.73 C 6.03 27.94 21.45 10.22 40.72 5.85 C 42.81 5.48 44.77 4.70 46.65 3.76 M 45.91 9.10 C 24.64 11.37 7.39 31.61 8.90 53.00 C 9.52 67.42 18.09 81.34 30.95 88.01 C 43.15 94.85 58.85 94.85 71.05 88.01 C 86.32 80.13 95.41 62.01 92.69 45.05 C 90.44 26.56 74.50 11.23 56.09 9.07 C 58.21 1.91 43.82 1.92 45.91 9.10 Z" />
<path fill="#071424" opacity="0.33" d=" M 11.43 40.54 C 15.43 24.83 29.69 11.96 45.98 10.58 C 46.01 11.14 46.08 12.26 46.11 12.83 C 42.09 13.26 38.40 14.95 34.81 16.69 C 17.94 23.79 8.55 45.02 14.58 62.27 C 19.62 80.98 41.23 93.35 59.89 88.07 C 73.86 84.96 85.70 73.19 88.27 59.00 C 91.48 47.73 87.16 35.73 80.43 26.62 C 75.98 20.68 69.06 17.57 62.63 14.29 C 60.46 13.03 57.93 14.04 55.68 14.42 C 55.75 13.48 55.91 11.58 55.99 10.64 C 77.93 12.20 95.17 34.89 91.63 56.45 C 89.96 69.38 81.63 81.11 70.14 87.18 C 56.04 94.98 37.60 93.06 25.26 82.79 C 13.02 73.00 6.93 55.70 11.43 40.54 Z" />
<path fill="#071424" opacity="0.33" d=" M 46.17 13.94 C 47.22 14.25 48.20 14.73 49.11 15.37 C 47.83 17.07 45.64 16.00 46.17 13.94 Z" />
<path fill="#071424" opacity="0.33" d=" M 55.31 14.53 C 55.40 14.51 55.59 14.45 55.68 14.42 C 55.59 14.45 55.40 14.51 55.31 14.53 Z" />
<path fill="#071424" opacity="0.33" d=" M 55.02 17.44 C 56.46 16.37 57.35 16.64 57.68 18.25 C 56.64 18.51 55.75 18.24 55.02 17.44 Z" />
</g>
<g id="#317affff">
<path fill="#317aff" opacity="1.00" d=" M 45.91 9.10 C 43.82 1.92 58.21 1.91 56.09 9.07 C 56.06 9.46 56.01 10.25 55.99 10.64 C 55.91 11.58 55.75 13.48 55.68 14.42 C 55.59 14.45 55.40 14.51 55.31 14.53 C 53.35 15.38 51.19 15.26 49.11 15.37 C 48.20 14.73 47.22 14.25 46.17 13.94 L 46.11 12.83 C 46.08 12.26 46.01 11.14 45.98 10.58 C 45.96 10.21 45.92 9.47 45.91 9.10 M 49.16 5.91 C 49.24 8.10 47.74 11.80 49.86 13.05 C 49.93 12.17 50.05 10.39 50.12 9.51 C 51.38 10.77 52.64 12.03 53.96 13.23 C 53.57 11.08 55.12 7.24 53.12 6.12 C 53.03 7.56 52.92 8.99 52.81 10.43 C 51.45 9.04 50.44 7.37 49.16 5.91 Z" />
</g>
<g id="#dae4ffff">
<path fill="#dae4ff" opacity="1.00" d=" M 49.16 5.91 C 50.44 7.37 51.45 9.04 52.81 10.43 C 52.92 8.99 53.03 7.56 53.12 6.12 C 55.12 7.24 53.57 11.08 53.96 13.23 C 52.64 12.03 51.38 10.77 50.12 9.51 C 50.05 10.39 49.93 12.17 49.86 13.05 C 47.74 11.80 49.24 8.10 49.16 5.91 Z" />
</g>
<g id="#143e8dff">
<path fill="#143e8d" opacity="1.00" d=" M 8.90 53.00 C 7.39 31.61 24.64 11.37 45.91 9.10 C 45.92 9.47 45.96 10.21 45.98 10.58 C 29.69 11.96 15.43 24.83 11.43 40.54 C 6.93 55.70 13.02 73.00 25.26 82.79 C 37.60 93.06 56.04 94.98 70.14 87.18 C 81.63 81.11 89.96 69.38 91.63 56.45 C 95.17 34.89 77.93 12.20 55.99 10.64 C 56.01 10.25 56.06 9.46 56.09 9.07 C 74.50 11.23 90.44 26.56 92.69 45.05 C 95.41 62.01 86.32 80.13 71.05 88.01 C 58.85 94.85 43.15 94.85 30.95 88.01 C 18.09 81.34 9.52 67.42 8.90 53.00 Z" />
<path fill="#143e8d" opacity="1.00" d=" M 46.38 24.46 C 61.50 21.25 77.12 33.63 77.88 48.99 C 78.84 59.50 72.78 70.63 63.06 75.01 C 49.62 82.61 30.50 75.03 25.77 60.35 C 19.56 45.31 30.26 26.68 46.38 24.46 M 46.49 31.57 C 35.91 33.84 28.51 45.72 31.77 56.16 C 34.29 66.45 46.05 73.43 56.25 70.22 C 66.46 67.58 73.42 55.93 70.22 45.75 C 67.64 35.80 56.52 28.88 46.49 31.57 Z" />
</g>
<g id="#0a1b40a8">
<path fill="#0a1b40" opacity="0.66" d=" M 18.69 40.66 C 23.35 25.76 39.42 14.86 55.02 17.44 C 55.75 18.24 56.64 18.51 57.68 18.25 C 65.25 18.53 71.82 23.80 76.76 29.23 C 88.28 41.76 87.41 63.32 74.80 74.80 C 62.99 87.77 40.54 88.27 28.20 75.79 C 18.42 67.34 14.48 52.90 18.69 40.66 M 46.38 24.46 C 30.26 26.68 19.56 45.31 25.77 60.35 C 30.50 75.03 49.62 82.61 63.06 75.01 C 72.78 70.63 78.84 59.50 77.88 48.99 C 77.12 33.63 61.50 21.25 46.38 24.46 Z" />
</g>
</svg>
