{
    "accessors": {
        "accessor_102": {
            "bufferView": "bufferView_191",
            "byteOffset": 16704,
            "byteStride": 0,
            "componentType": 5123,
            "count": 204,
            "type": "SCALAR"
        },
        "accessor_104": {
            "bufferView": "bufferView_192",
            "byteOffset": 267264,
            "byteStride": 12,
            "componentType": 5126,
            "count": 204,
            "max": [
                -0.766793,
                0.8633,
                0.852955
            ],
            "min": [
                -1.01931,
                0.610806,
                -0.490362
            ],
            "type": "VEC3"
        },
        "accessor_106": {
            "bufferView": "bufferView_192",
            "byteOffset": 269712,
            "byteStride": 12,
            "componentType": 5126,
            "count": 204,
            "max": [
                1,
                0.99992,
                0.870537
            ],
            "min": [
                -1,
                -0.99992,
                -0.99992
            ],
            "type": "VEC3"
        },
        "accessor_108": {
            "bufferView": "bufferView_192",
            "byteOffset": 272160,
            "byteStride": 8,
            "componentType": 5126,
            "count": 204,
            "max": [
                0.96819,
                0.676467
            ],
            "min": [
                0.932372,
                0.010147
            ],
            "type": "VEC2"
        },
        "accessor_129": {
            "bufferView": "bufferView_191",
            "byteOffset": 17112,
            "byteStride": 0,
            "componentType": 5123,
            "count": 204,
            "type": "SCALAR"
        },
        "accessor_131": {
            "bufferView": "bufferView_192",
            "byteOffset": 273792,
            "byteStride": 12,
            "componentType": 5126,
            "count": 204,
            "max": [
                1.01931,
                0.863298,
                0.852952
            ],
            "min": [
                0.766793,
                0.610804,
                -0.490365
            ],
            "type": "VEC3"
        },
        "accessor_133": {
            "bufferView": "bufferView_192",
            "byteOffset": 276240,
            "byteStride": 12,
            "componentType": 5126,
            "count": 204,
            "max": [
                1,
                0.99992,
                0.870537
            ],
            "min": [
                -1,
                -0.99992,
                -0.99992
            ],
            "type": "VEC3"
        },
        "accessor_135": {
            "bufferView": "bufferView_192",
            "byteOffset": 278688,
            "byteStride": 8,
            "componentType": 5126,
            "count": 204,
            "max": [
                0.96819,
                0.676467
            ],
            "min": [
                0.932372,
                0.010147
            ],
            "type": "VEC2"
        },
        "accessor_156": {
            "bufferView": "bufferView_191",
            "byteOffset": 17520,
            "byteStride": 0,
            "componentType": 5123,
            "count": 204,
            "type": "SCALAR"
        },
        "accessor_158": {
            "bufferView": "bufferView_192",
            "byteOffset": 280320,
            "byteStride": 12,
            "componentType": 5126,
            "count": 204,
            "max": [
                1.46586,
                0.866767,
                0.579021
            ],
            "min": [
                1.21335,
                0.614274,
                -0.764299
            ],
            "type": "VEC3"
        },
        "accessor_160": {
            "bufferView": "bufferView_192",
            "byteOffset": 282768,
            "byteStride": 12,
            "componentType": 5126,
            "count": 204,
            "max": [
                1,
                0.99992,
                0.870538
            ],
            "min": [
                -1,
                -0.99992,
                -0.99992
            ],
            "type": "VEC3"
        },
        "accessor_162": {
            "bufferView": "bufferView_192",
            "byteOffset": 285216,
            "byteStride": 8,
            "componentType": 5126,
            "count": 204,
            "max": [
                0.96819,
                0.676467
            ],
            "min": [
                0.932372,
                0.010147
            ],
            "type": "VEC2"
        },
        "accessor_183": {
            "bufferView": "bufferView_191",
            "byteOffset": 17928,
            "byteStride": 0,
            "componentType": 5123,
            "count": 264,
            "type": "SCALAR"
        },
        "accessor_185": {
            "bufferView": "bufferView_192",
            "byteOffset": 286848,
            "byteStride": 12,
            "componentType": 5126,
            "count": 264,
            "max": [
                1.88688,
                0.869721,
                0.124574
            ],
            "min": [
                1.67895,
                0.65994,
                -0.964646
            ],
            "type": "VEC3"
        },
        "accessor_187": {
            "bufferView": "bufferView_192",
            "byteOffset": 290016,
            "byteStride": 12,
            "componentType": 5126,
            "count": 264,
            "max": [
                1,
                0.99992,
                0.870535
            ],
            "min": [
                -1,
                -0.99992,
                -0.99992
            ],
            "type": "VEC3"
        },
        "accessor_189": {
            "bufferView": "bufferView_192",
            "byteOffset": 293184,
            "byteStride": 8,
            "componentType": 5126,
            "count": 264,
            "max": [
                0.998692,
                0.675401
            ],
            "min": [
                0.971877,
                0.000818014
            ],
            "type": "VEC2"
        },
        "accessor_21": {
            "bufferView": "bufferView_191",
            "byteOffset": 0,
            "byteStride": 0,
            "componentType": 5123,
            "count": 7884,
            "type": "SCALAR"
        },
        "accessor_23": {
            "bufferView": "bufferView_192",
            "byteOffset": 0,
            "byteStride": 12,
            "componentType": 5126,
            "count": 7884,
            "max": [
                2.38673,
                2.10244,
                4.45265
            ],
            "min": [
                -2.38673,
                0.396479,
                -2.70789
            ],
            "type": "VEC3"
        },
        "accessor_25": {
            "bufferView": "bufferView_192",
            "byteOffset": 94608,
            "byteStride": 12,
            "componentType": 5126,
            "count": 7884,
            "max": [
                1,
                0.999997,
                0.99992
            ],
            "min": [
                -1,
                -1,
                -0.99992
            ],
            "type": "VEC3"
        },
        "accessor_27": {
            "bufferView": "bufferView_192",
            "byteOffset": 189216,
            "byteStride": 8,
            "componentType": 5126,
            "count": 7884,
            "max": [
                0.865363,
                0.92587
            ],
            "min": [
                0.0521984,
                0.086011
            ],
            "type": "VEC2"
        },
        "accessor_48": {
            "bufferView": "bufferView_191",
            "byteOffset": 15768,
            "byteStride": 0,
            "componentType": 5123,
            "count": 264,
            "type": "SCALAR"
        },
        "accessor_50": {
            "bufferView": "bufferView_192",
            "byteOffset": 252288,
            "byteStride": 12,
            "componentType": 5126,
            "count": 264,
            "max": [
                -1.67896,
                0.869724,
                0.124578
            ],
            "min": [
                -1.88689,
                0.659943,
                -0.964641
            ],
            "type": "VEC3"
        },
        "accessor_52": {
            "bufferView": "bufferView_192",
            "byteOffset": 255456,
            "byteStride": 12,
            "componentType": 5126,
            "count": 264,
            "max": [
                1,
                0.99992,
                0.870535
            ],
            "min": [
                -1,
                -0.99992,
                -0.99992
            ],
            "type": "VEC3"
        },
        "accessor_54": {
            "bufferView": "bufferView_192",
            "byteOffset": 258624,
            "byteStride": 8,
            "componentType": 5126,
            "count": 264,
            "max": [
                0.998692,
                0.675401
            ],
            "min": [
                0.971877,
                0.000818014
            ],
            "type": "VEC2"
        },
        "accessor_75": {
            "bufferView": "bufferView_191",
            "byteOffset": 16296,
            "byteStride": 0,
            "componentType": 5123,
            "count": 204,
            "type": "SCALAR"
        },
        "accessor_77": {
            "bufferView": "bufferView_192",
            "byteOffset": 260736,
            "byteStride": 12,
            "componentType": 5126,
            "count": 204,
            "max": [
                -1.21335,
                0.86677,
                0.579023
            ],
            "min": [
                -1.46586,
                0.614276,
                -0.764296
            ],
            "type": "VEC3"
        },
        "accessor_79": {
            "bufferView": "bufferView_192",
            "byteOffset": 263184,
            "byteStride": 12,
            "componentType": 5126,
            "count": 204,
            "max": [
                1,
                0.99992,
                0.870538
            ],
            "min": [
                -1,
                -0.99992,
                -0.99992
            ],
            "type": "VEC3"
        },
        "accessor_81": {
            "bufferView": "bufferView_192",
            "byteOffset": 265632,
            "byteStride": 8,
            "componentType": 5126,
            "count": 204,
            "max": [
                0.96819,
                0.676467
            ],
            "min": [
                0.932372,
                0.010147
            ],
            "type": "VEC2"
        }
    },
    "animations": {},
    "asset": {
        "generator": "collada2gltf@d78daf1e7950e6c22fe6bec1d07965e8a302e90d",
        "premultipliedAlpha": true,
        "profile": {
            "api": "WebGL",
            "version": "1.0.2"
        },
        "version": 1
    },
    "bufferViews": {
        "bufferView_191": {
            "buffer": "j11",
            "byteLength": 18456,
            "byteOffset": 0,
            "target": 34963
        },
        "bufferView_192": {
            "buffer": "j11",
            "byteLength": 295296,
            "byteOffset": 18456,
            "target": 34962
        }
    },
    "buffers": {
        "j11": {
            "byteLength": 313752,
            "type": "arraybuffer",
            "uri": "data:application/octet-stream;base64,"
        }
    },
    "images": {
        "su27002_jpg": {
            "name": "su27002_jpg",
            "uri": "images/0_su27002.jpg"
        }
    },
    "materials": {
        "m0mat": {
            "name": "m0mat",
            "technique": "technique0",
            "values": {
                "ambient": [
                    1,
                    1,
                    1,
                    1
                ],
                "diffuse": "texture_su27002_jpg",
                "emission": [
                    0,
                    0,
                    0,
                    1
                ],
                "shininess": 46.7242,
                "specular": [
                    0,
                    0,
                    0,
                    1
                ]
            }
        }
    },
    "meshes": {
        "geom-_": {
            "name": "_",
            "primitives": [
                {
                    "attributes": {
                        "NORMAL": "accessor_25",
                        "POSITION": "accessor_23",
                        "TEXCOORD_0": "accessor_27"
                    },
                    "indices": "accessor_21",
                    "material": "m0mat",
                    "mode": 4
                }
            ]
        },
        "geom-__1": {
            "name": "_",
            "primitives": [
                {
                    "attributes": {
                        "NORMAL": "accessor_52",
                        "POSITION": "accessor_50",
                        "TEXCOORD_0": "accessor_54"
                    },
                    "indices": "accessor_48",
                    "material": "m0mat",
                    "mode": 4
                }
            ]
        },
        "geom-__2": {
            "name": "_",
            "primitives": [
                {
                    "attributes": {
                        "NORMAL": "accessor_79",
                        "POSITION": "accessor_77",
                        "TEXCOORD_0": "accessor_81"
                    },
                    "indices": "accessor_75",
                    "material": "m0mat",
                    "mode": 4
                }
            ]
        },
        "geom-__3": {
            "name": "_",
            "primitives": [
                {
                    "attributes": {
                        "NORMAL": "accessor_106",
                        "POSITION": "accessor_104",
                        "TEXCOORD_0": "accessor_108"
                    },
                    "indices": "accessor_102",
                    "material": "m0mat",
                    "mode": 4
                }
            ]
        },
        "geom-__4": {
            "name": "_",
            "primitives": [
                {
                    "attributes": {
                        "NORMAL": "accessor_133",
                        "POSITION": "accessor_131",
                        "TEXCOORD_0": "accessor_135"
                    },
                    "indices": "accessor_129",
                    "material": "m0mat",
                    "mode": 4
                }
            ]
        },
        "geom-__5": {
            "name": "_",
            "primitives": [
                {
                    "attributes": {
                        "NORMAL": "accessor_160",
                        "POSITION": "accessor_158",
                        "TEXCOORD_0": "accessor_162"
                    },
                    "indices": "accessor_156",
                    "material": "m0mat",
                    "mode": 4
                }
            ]
        },
        "geom-__6": {
            "name": "_",
            "primitives": [
                {
                    "attributes": {
                        "NORMAL": "accessor_187",
                        "POSITION": "accessor_185",
                        "TEXCOORD_0": "accessor_189"
                    },
                    "indices": "accessor_183",
                    "material": "m0mat",
                    "mode": 4
                }
            ]
        }
    },
    "nodes": {
        "node-_": {
            "children": [],
            "matrix": [
                1,
                0,
                0,
                0,
                0,
                1,
                0,
                0,
                0,
                0,
                1,
                0,
                0,
                0,
                0,
                1
            ],
            "meshes": [
                "geom-_"
            ],
            "name": "_"
        },
        "node-__1": {
            "children": [],
            "matrix": [
                1,
                0,
                0,
                0,
                0,
                1,
                0,
                0,
                0,
                0,
                1,
                0,
                0,
                0,
                0,
                1
            ],
            "meshes": [
                "geom-__1"
            ],
            "name": "_"
        },
        "node-__2": {
            "children": [],
            "matrix": [
                1,
                0,
                0,
                0,
                0,
                1,
                0,
                0,
                0,
                0,
                1,
                0,
                0,
                0,
                0,
                1
            ],
            "meshes": [
                "geom-__2"
            ],
            "name": "_"
        },
        "node-__3": {
            "children": [],
            "matrix": [
                1,
                0,
                0,
                0,
                0,
                1,
                0,
                0,
                0,
                0,
                1,
                0,
                0,
                0,
                0,
                1
            ],
            "meshes": [
                "geom-__3"
            ],
            "name": "_"
        },
        "node-__4": {
            "children": [],
            "matrix": [
                1,
                0,
                0,
                0,
                0,
                1,
                0,
                0,
                0,
                0,
                1,
                0,
                0,
                0,
                0,
                1
            ],
            "meshes": [
                "geom-__4"
            ],
            "name": "_"
        },
        "node-__5": {
            "children": [],
            "matrix": [
                1,
                0,
                0,
                0,
                0,
                1,
                0,
                0,
                0,
                0,
                1,
                0,
                0,
                0,
                0,
                1
            ],
            "meshes": [
                "geom-__5"
            ],
            "name": "_"
        },
        "node-__6": {
            "children": [],
            "matrix": [
                1,
                0,
                0,
                0,
                0,
                1,
                0,
                0,
                0,
                0,
                1,
                0,
                0,
                0,
                0,
                1
            ],
            "meshes": [
                "geom-__6"
            ],
            "name": "_"
        },
        "node-j11": {
            "children": [
                "node-_",
                "node-__1",
                "node-__2",
                "node-__3",
                "node-__4",
                "node-__5",
                "node-__6"
            ],
            "matrix": [
                -2.72138e-009,
                39.3701,
                2.72137e-009,
                0,
                2.72137e-009,
                -2.72138e-009,
                39.3701,
                0,
                39.3701,
                2.72137e-009,
                -2.72138e-009,
                0,
                -1.03163,
                -1.03159,
                0,
                1
            ],
            "name": "j11"
        },
        "node_0": {
            "children": [],
            "matrix": [
                1,
                0,
                0,
                0,
                0,
                1,
                0,
                0,
                0,
                0,
                1,
                0,
                0,
                0,
                0,
                1
            ],
            "name": "EnvironmentAmbientLight"
        },
        "node_9": {
            "children": [
                "node_0",
                "node-j11"
            ],
            "matrix": [
                1,
                0,
                0,
                0,
                0,
                0,
                -1,
                0,
                0,
                1,
                0,
                0,
                0,
                0,
                0,
                1
            ],
            "name": "Y_UP_Transform"
        }
    },
    "programs": {
        "program_0": {
            "attributes": [
                "a_normal",
                "a_position",
                "a_texcoord0"
            ],
            "fragmentShader": "j110FS",
            "vertexShader": "j110VS"
        }
    },
    "samplers": {
        "sampler_0": {
            "magFilter": 9729,
            "minFilter": 9729,
            "wrapS": 10497,
            "wrapT": 10497
        }
    },
    "scene": "defaultScene",
    "scenes": {
        "defaultScene": {
            "nodes": [
                "node_9"
            ]
        }
    },
    "shaders": {
        "j110FS": {
            "type": 35632,
            "uri": "data:text/plain;base64,"
        },
        "j110VS": {
            "type": 35633,
            "uri": "data:text/plain;base64,"
        }
    },
    "skins": {},
    "techniques": {
        "technique0": {
            "attributes": {
                "a_normal": "normal",
                "a_position": "position",
                "a_texcoord0": "texcoord0"
            },
            "parameters": {
                "ambient": {
                    "type": 35666
                },
                "diffuse": {
                    "type": 35678
                },
                "emission": {
                    "type": 35666
                },
                "modelViewMatrix": {
                    "semantic": "MODELVIEW",
                    "type": 35676
                },
                "normal": {
                    "semantic": "NORMAL",
                    "type": 35665
                },
                "normalMatrix": {
                    "semantic": "MODELVIEWINVERSETRANSPOSE",
                    "type": 35675
                },
                "position": {
                    "semantic": "POSITION",
                    "type": 35665
                },
                "projectionMatrix": {
                    "semantic": "PROJECTION",
                    "type": 35676
                },
                "shininess": {
                    "type": 5126
                },
                "specular": {
                    "type": 35666
                },
                "texcoord0": {
                    "semantic": "TEXCOORD_0",
                    "type": 35664
                }
            },
            "program": "program_0",
            "states": {
                "enable": [
                    2929,
                    2884
                ]
            },
            "uniforms": {
                "u_ambient": "ambient",
                "u_diffuse": "diffuse",
                "u_emission": "emission",
                "u_modelViewMatrix": "modelViewMatrix",
                "u_normalMatrix": "normalMatrix",
                "u_projectionMatrix": "projectionMatrix",
                "u_shininess": "shininess",
                "u_specular": "specular"
            }
        }
    },
    "textures": {
        "texture_su27002_jpg": {
            "format": 6408,
            "internalFormat": 6408,
            "sampler": "sampler_0",
            "source": "su27002_jpg",
            "target": 3553,
            "type": 5121
        }
    }
}