{
    "accessors": {
        "accessor_110": {
            "bufferView": "bufferView_116",
            "byteOffset": 3546,
            "byteStride": 0,
            "componentType": 5123,
            "count": 90,
            "type": "SCALAR"
        },
        "accessor_112": {
            "bufferView": "bufferView_117",
            "byteOffset": 14840,
            "byteStride": 12,
            "componentType": 5126,
            "count": 56,
            "max": [
                0.0862776,
                0.0372195,
                0.0226234
            ],
            "min": [
                -0.00812981,
                -0.00970719,
                -0.0279915
            ],
            "type": "VEC3"
        },
        "accessor_114": {
            "bufferView": "bufferView_117",
            "byteOffset": 15512,
            "byteStride": 8,
            "componentType": 5126,
            "count": 56,
            "max": [
                0.687608,
                -0.00507402
            ],
            "min": [
                0.00732922,
                -0.844987
            ],
            "type": "VEC2"
        },
        "accessor_15": {
            "bufferView": "bufferView_116",
            "byteOffset": 3726,
            "byteStride": 0,
            "componentType": 5123,
            "count": 240,
            "type": "SCALAR"
        },
        "accessor_17": {
            "bufferView": "bufferView_117",
            "byteOffset": 15960,
            "byteStride": 12,
            "componentType": 5126,
            "count": 88,
            "max": [
                0.012012,
                0.00878762,
                0.0484056
            ],
            "min": [
                -0.013695,
                -0.0152032,
                -0.00511585
            ],
            "type": "VEC3"
        },
        "accessor_19": {
            "bufferView": "bufferView_117",
            "byteOffset": 17016,
            "byteStride": 8,
            "componentType": 5126,
            "count": 88,
            "max": [
                0.989718,
                -0.583955
            ],
            "min": [
                0.639804,
                -0.726716
            ],
            "type": "VEC2"
        },
        "accessor_34": {
            "bufferView": "bufferView_116",
            "byteOffset": 1698,
            "byteStride": 0,
            "componentType": 5123,
            "count": 924,
            "type": "SCALAR"
        },
        "accessor_36": {
            "bufferView": "bufferView_117",
            "byteOffset": 8100,
            "byteStride": 12,
            "componentType": 5126,
            "count": 337,
            "max": [
                0.021527,
                0.00159069,
                0.0100796
            ],
            "min": [
                -0.0065061,
                -0.0299393,
                -0.00742102
            ],
            "type": "VEC3"
        },
        "accessor_38": {
            "bufferView": "bufferView_117",
            "byteOffset": 12144,
            "byteStride": 8,
            "componentType": 5126,
            "count": 337,
            "max": [
                0.994089,
                -0.00865102
            ],
            "min": [
                0.0108923,
                -0.986975
            ],
            "type": "VEC2"
        },
        "accessor_53": {
            "bufferView": "bufferView_116",
            "byteOffset": 480,
            "byteStride": 0,
            "componentType": 5123,
            "count": 609,
            "type": "SCALAR"
        },
        "accessor_55": {
            "bufferView": "bufferView_117",
            "byteOffset": 1760,
            "byteStride": 12,
            "componentType": 5126,
            "count": 317,
            "max": [
                0.0511001,
                0.036589,
                0.00823916
            ],
            "min": [
                -0.0933231,
                -0.00528815,
                -0.0456149
            ],
            "type": "VEC3"
        },
        "accessor_57": {
            "bufferView": "bufferView_117",
            "byteOffset": 5564,
            "byteStride": 8,
            "componentType": 5126,
            "count": 317,
            "max": [
                0.97439,
                -0.00625002
            ],
            "min": [
                0.00552177,
                -0.996891
            ],
            "type": "VEC2"
        },
        "accessor_72": {
            "bufferView": "bufferView_116",
            "byteOffset": 240,
            "byteStride": 0,
            "componentType": 5123,
            "count": 120,
            "type": "SCALAR"
        },
        "accessor_74": {
            "bufferView": "bufferView_117",
            "byteOffset": 880,
            "byteStride": 12,
            "componentType": 5126,
            "count": 44,
            "max": [
                0.00478729,
                0.0137347,
                0.00179707
            ],
            "min": [
                -0.0180313,
                -0.0102576,
                -0.0112174
            ],
            "type": "VEC3"
        },
        "accessor_76": {
            "bufferView": "bufferView_117",
            "byteOffset": 1408,
            "byteStride": 8,
            "componentType": 5126,
            "count": 44,
            "max": [
                0.989748,
                -0.583956
            ],
            "min": [
                0.639804,
                -0.726523
            ],
            "type": "VEC2"
        },
        "accessor_91": {
            "bufferView": "bufferView_116",
            "byteOffset": 0,
            "byteStride": 0,
            "componentType": 5123,
            "count": 120,
            "type": "SCALAR"
        },
        "accessor_93": {
            "bufferView": "bufferView_117",
            "byteOffset": 0,
            "byteStride": 12,
            "componentType": 5126,
            "count": 44,
            "max": [
                0.00771463,
                0.0177754,
                0.0017429
            ],
            "min": [
                -0.0151039,
                -0.00621698,
                -0.0112716
            ],
            "type": "VEC3"
        },
        "accessor_95": {
            "bufferView": "bufferView_117",
            "byteOffset": 528,
            "byteStride": 8,
            "componentType": 5126,
            "count": 44,
            "max": [
                0.989748,
                -0.583955
            ],
            "min": [
                0.639804,
                -0.726523
            ],
            "type": "VEC2"
        }
    },
    "animations": {},
    "asset": {
        "generator": "collada2gltf@d78daf1e7950e6c22fe6bec1d07965e8a302e90d",
        "premultipliedAlpha": true,
        "profile": {
            "api": "WebGL",
            "version": "1.0.2"
        },
        "version": 1
    },
    "bufferViews": {
        "bufferView_116": {
            "buffer": "\\daeToGltf\\tools\\junyongkache",
            "byteLength": 4208,
            "byteOffset": 0,
            "target": 34963
        },
        "bufferView_117": {
            "buffer": "\\daeToGltf\\tools\\junyongkache",
            "byteLength": 17720,
            "byteOffset": 4208,
            "target": 34962
        }
    },
    "buffers": {
        "\\daeToGltf\\tools\\junyongkache": {
            "byteLength": 21928,
            "type": "arraybuffer",
            "uri": "data:application/octet-stream;base64,"
        }
    },
    "images": {
        "_4c9a0e0_dds": {
            "name": "_4c9a0e0_dds",
            "uri": "images/0_14c9a0e0.jpg"
        },
        "_507eda0_dds": {
            "name": "_507eda0_dds",
            "uri": "images/1_1507eda0.jpg"
        }
    },
    "materials": {
        "Material__25": {
            "name": "Material__25",
            "technique": "technique0",
            "values": {
                "ambient": "texture__4c9a0e0_dds",
                "diffuse": "texture__4c9a0e0_dds",
                "emission": [
                    0,
                    0,
                    0,
                    1
                ],
                "shininess": 10,
                "specular": [
                    0,
                    0,
                    0,
                    1
                ]
            }
        },
        "Material__33": {
            "name": "Material__33",
            "technique": "technique0",
            "values": {
                "ambient": "texture__507eda0_dds",
                "diffuse": "texture__507eda0_dds",
                "emission": [
                    0,
                    0,
                    0,
                    1
                ],
                "shininess": 10,
                "specular": [
                    0,
                    0,
                    0,
                    1
                ]
            }
        },
        "Material__35": {
            "name": "Material__35",
            "technique": "technique0",
            "values": {
                "ambient": "texture__4c9a0e0_dds",
                "diffuse": "texture__4c9a0e0_dds",
                "emission": [
                    0,
                    0,
                    0,
                    1
                ],
                "shininess": 10,
                "specular": [
                    0,
                    0,
                    0,
                    1
                ]
            }
        },
        "Material__36": {
            "name": "Material__36",
            "technique": "technique0",
            "values": {
                "ambient": "texture__4c9a0e0_dds",
                "diffuse": "texture__4c9a0e0_dds",
                "emission": [
                    0,
                    0,
                    0,
                    1
                ],
                "shininess": 10,
                "specular": [
                    0,
                    0,
                    0,
                    1
                ]
            }
        },
        "Material__37": {
            "name": "Material__37",
            "technique": "technique0",
            "values": {
                "ambient": "texture__4c9a0e0_dds",
                "diffuse": "texture__4c9a0e0_dds",
                "emission": [
                    0,
                    0,
                    0,
                    1
                ],
                "shininess": 10,
                "specular": [
                    0,
                    0,
                    0,
                    1
                ]
            }
        },
        "Material__48": {
            "name": "Material__48",
            "technique": "technique0",
            "values": {
                "ambient": "texture__4c9a0e0_dds",
                "diffuse": "texture__4c9a0e0_dds",
                "emission": [
                    0,
                    0,
                    0,
                    1
                ],
                "shininess": 10,
                "specular": [
                    0,
                    0,
                    0,
                    1
                ]
            }
        }
    },
    "meshes": {
        "geom-_1fb1838.obj": {
            "name": "_1fb1838.obj",
            "primitives": [
                {
                    "attributes": {
                        "POSITION": "accessor_93",
                        "TEXCOORD_0": "accessor_95"
                    },
                    "indices": "accessor_91",
                    "material": "Material__37",
                    "mode": 4
                }
            ]
        },
        "geom-_1fb3bf8.obj": {
            "name": "_1fb3bf8.obj",
            "primitives": [
                {
                    "attributes": {
                        "POSITION": "accessor_74",
                        "TEXCOORD_0": "accessor_76"
                    },
                    "indices": "accessor_72",
                    "material": "Material__36",
                    "mode": 4
                }
            ]
        },
        "geom-_1fb6008.obj": {
            "name": "_1fb6008.obj",
            "primitives": [
                {
                    "attributes": {
                        "POSITION": "accessor_55",
                        "TEXCOORD_0": "accessor_57"
                    },
                    "indices": "accessor_53",
                    "material": "Material__35",
                    "mode": 4
                }
            ]
        },
        "geom-_201ffb0.obj": {
            "name": "_201ffb0.obj",
            "primitives": [
                {
                    "attributes": {
                        "POSITION": "accessor_36",
                        "TEXCOORD_0": "accessor_38"
                    },
                    "indices": "accessor_34",
                    "material": "Material__33",
                    "mode": 4
                }
            ]
        },
        "geom-_2132d68.obj": {
            "name": "_2132d68.obj",
            "primitives": [
                {
                    "attributes": {
                        "POSITION": "accessor_112",
                        "TEXCOORD_0": "accessor_114"
                    },
                    "indices": "accessor_110",
                    "material": "Material__25",
                    "mode": 4
                }
            ]
        },
        "geom-_218cfd0.obj": {
            "name": "_218cfd0.obj",
            "primitives": [
                {
                    "attributes": {
                        "POSITION": "accessor_17",
                        "TEXCOORD_0": "accessor_19"
                    },
                    "indices": "accessor_15",
                    "material": "Material__48",
                    "mode": 4
                }
            ]
        }
    },
    "nodes": {
        "node-_1fb1838.obj": {
            "children": [],
            "matrix": [
                1,
                -1.00353e-018,
                -4.47034e-008,
                0,
                4.47034e-008,
                4.48972e-011,
                1,
                0,
                1.00353e-018,
                -1,
                4.48972e-011,
                0,
                -0.0303796,
                -0.0207923,
                -0.0219308,
                1
            ],
            "meshes": [
                "geom-_1fb1838.obj"
            ],
            "name": "_1fb1838.obj"
        },
        "node-_1fb3bf8.obj": {
            "children": [],
            "matrix": [
                1,
                -1.00353e-018,
                -4.47034e-008,
                0,
                4.47034e-008,
                4.48972e-011,
                1,
                0,
                1.00353e-018,
                -1,
                4.48972e-011,
                0,
                -0.0270029,
                0.0150615,
                -0.0178902,
                1
            ],
            "meshes": [
                "geom-_1fb3bf8.obj"
            ],
            "name": "_1fb3bf8.obj"
        },
        "node-_1fb6008.obj": {
            "children": [],
            "matrix": [
                1,
                -1.00353e-018,
                -4.47034e-008,
                0,
                4.47034e-008,
                4.48972e-011,
                1,
                0,
                1.00353e-018,
                -1,
                4.48972e-011,
                0,
                0.0264241,
                -0.0168076,
                -0.00805288,
                1
            ],
            "meshes": [
                "geom-_1fb6008.obj"
            ],
            "name": "_1fb6008.obj"
        },
        "node-_201ffb0.obj": {
            "children": [],
            "matrix": [
                1,
                -1.00353e-018,
                -4.47034e-008,
                0,
                4.47034e-008,
                4.48972e-011,
                1,
                0,
                1.00353e-018,
                -1,
                4.48972e-011,
                0,
                0.0261887,
                -0.00640396,
                0.0235988,
                1
            ],
            "meshes": [
                "geom-_201ffb0.obj"
            ],
            "name": "_201ffb0.obj"
        },
        "node-_2132d68.obj": {
            "children": [],
            "matrix": [
                1,
                -1.00353e-018,
                -4.47034e-008,
                0,
                4.47034e-008,
                4.48972e-011,
                1,
                0,
                1.00353e-018,
                -1,
                4.48972e-011,
                0,
                -0.0686547,
                -0.000958469,
                0.00872994,
                1
            ],
            "meshes": [
                "geom-_2132d68.obj"
            ],
            "name": "_2132d68.obj"
        },
        "node-_218cfd0.obj": {
            "children": [],
            "matrix": [
                1,
                -1.00353e-018,
                -4.47034e-008,
                0,
                4.47034e-008,
                4.48972e-011,
                1,
                0,
                1.00353e-018,
                -1,
                4.48972e-011,
                0,
                0.05874,
                0.0212185,
                -0.012898,
                1
            ],
            "meshes": [
                "geom-_218cfd0.obj"
            ],
            "name": "_218cfd0.obj"
        },
        "node_0": {
            "children": [],
            "matrix": [
                1,
                0,
                0,
                0,
                0,
                1,
                0,
                0,
                0,
                0,
                1,
                0,
                0,
                0,
                0,
                1
            ],
            "name": "EnvironmentAmbientLight"
        },
        "node_7": {
            "children": [
                "node_0",
                "node-_218cfd0.obj",
                "node-_201ffb0.obj",
                "node-_1fb6008.obj",
                "node-_1fb3bf8.obj",
                "node-_1fb1838.obj",
                "node-_2132d68.obj"
            ],
            "matrix": [
                1,
                0,
                0,
                0,
                0,
                0,
                -1,
                0,
                0,
                1,
                0,
                0,
                0,
                0,
                0,
                1
            ],
            "name": "Y_UP_Transform"
        }
    },
    "programs": {
        "program_0": {
            "attributes": [
                "a_position",
                "a_texcoord0"
            ],
            "fragmentShader": "\\daeToGltf\\tools\\junyongkache0FS",
            "vertexShader": "\\daeToGltf\\tools\\junyongkache0VS"
        }
    },
    "samplers": {
        "sampler_0": {
            "magFilter": 9729,
            "minFilter": 9729,
            "wrapS": 10497,
            "wrapT": 10497
        }
    },
    "scene": "defaultScene",
    "scenes": {
        "defaultScene": {
            "nodes": [
                "node_7"
            ]
        }
    },
    "shaders": {
        "\\daeToGltf\\tools\\junyongkache0FS": {
            "type": 35632,
            "uri": "data:text/plain;base64,"
        },
        "\\daeToGltf\\tools\\junyongkache0VS": {
            "type": 35633,
            "uri": "data:text/plain;base64,"
        }
    },
    "skins": {},
    "techniques": {
        "technique0": {
            "attributes": {
                "a_position": "position",
                "a_texcoord0": "texcoord0"
            },
            "parameters": {
                "ambient": {
                    "type": 35678
                },
                "diffuse": {
                    "type": 35678
                },
                "emission": {
                    "type": 35666
                },
                "modelViewMatrix": {
                    "semantic": "MODELVIEW",
                    "type": 35676
                },
                "position": {
                    "semantic": "POSITION",
                    "type": 35665
                },
                "projectionMatrix": {
                    "semantic": "PROJECTION",
                    "type": 35676
                },
                "shininess": {
                    "type": 5126
                },
                "specular": {
                    "type": 35666
                },
                "texcoord0": {
                    "semantic": "TEXCOORD_0",
                    "type": 35664
                }
            },
            "program": "program_0",
            "states": {
                "enable": [
                    2929,
                    2884
                ]
            },
            "uniforms": {
                "u_diffuse": "diffuse",
                "u_emission": "emission",
                "u_modelViewMatrix": "modelViewMatrix",
                "u_projectionMatrix": "projectionMatrix",
                "u_shininess": "shininess"
            }
        }
    },
    "textures": {
        "texture__4c9a0e0_dds": {
            "format": 6408,
            "internalFormat": 6408,
            "sampler": "sampler_0",
            "source": "_4c9a0e0_dds",
            "target": 3553,
            "type": 5121
        },
        "texture__507eda0_dds": {
            "format": 6408,
            "internalFormat": 6408,
            "sampler": "sampler_0",
            "source": "_507eda0_dds",
            "target": 3553,
            "type": 5121
        }
    }
}